<?xml version="1.0" encoding="UTF-8"?>
<svg xmlns="http://www.w3.org/2000/svg" viewBox="0 0 75 75" role="img" aria-labelledby="title desc">
  <title id="title">Choose your park</title>
  <desc id="desc">A park map with a location marker and trees on a soft purple organic background.</desc>
  <path opacity=".8" fill="#BFE3FF" d="M44.3 8.6s7.9-2 13.1 2.7S70.5 27 70.9 41.4 72 68.1 46.3 67 12.1 55 7.3 46.4 3.5 24.1 13.2 19.7 40.7 9 44.3 8.6Z"/>

  <g fill="none" stroke="#111" stroke-width="2.15" stroke-linecap="round" stroke-linejoin="round">
    <!-- folded park map -->
    <path d="m10.8 27.8 15.5-6.1 21 6.1 16.9-6.1v31.5l-16.9 6.1-21-6.1-15.5 6.1Z"/>
    <path d="M26.3 21.7v31.5M47.3 27.8v31.5"/>

    <!-- winding park trail -->
    <path d="M14.8 48.8c5.4-5 8.2-7.5 14.3-7.1 7.1.5 8.6 6.2 14.3 5.8 4.8-.3 7.3-5 16.6-10.2" stroke-dasharray="3.2 4.1"/>

    <!-- location marker -->
    <path fill="#111" stroke="none" d="M39.5 12.3c-6.1 0-11.1 4.9-11.1 11 0 8.5 11.1 19.5 11.1 19.5s11.1-11 11.1-19.5c0-6.1-5-11-11.1-11Zm0 15.2a4.4 4.4 0 1 1 0-8.8 4.4 4.4 0 0 1 0 8.8Z"/>

    <!-- simple trees -->
    <path fill="#111" stroke="none" d="m17.9 30-5.7 8.7h3.3l-4.1 6h5.4v4h2.2v-4h5.4l-4.1-6h3.3Zm40.6-1.9-5 7.7h2.8l-3.5 5.2h4.6v3.5h2.1V41h4.6l-3.5-5.2h2.9Z"/>
  </g>
</svg>
