<?xml version="1.0" encoding="UTF-8"?>
<svg xmlns="http://www.w3.org/2000/svg" viewBox="0 0 75 75" role="img" aria-labelledby="title desc">
  <title id="title">Review the live total</title>
  <desc id="desc">A live price calculator and receipt on a soft purple organic background.</desc>
  <path opacity=".8" fill="#FFC993" d="M44.3 8.6s7.9-2 13.1 2.7S70.5 27 70.9 41.4 72 68.1 46.3 67 12.1 55 7.3 46.4 3.5 24.1 13.2 19.7 40.7 9 44.3 8.6Z"/>
  <g fill="none" stroke="#111" stroke-width="2.25" stroke-linecap="round" stroke-linejoin="round">
    <path d="M16 14h34v48l-4-2.8-4 2.8-4-2.8-4 2.8-4-2.8-4 2.8-4-2.8-6 2.8Z"/>
    <path d="M23 25h20M23 33h12M23 49h20"/>
    <path d="M39 35.5c-1.1-1.2-5.9-1.4-6.1 1.8-.2 3.2 7 1.7 6.8 5.3-.2 3.6-5.6 3.3-7.4 1.5M36 32.8v14.3"/>
    <circle cx="57.5" cy="33" r="10.5" fill="#fff"/>
    <path d="M57.5 27v6.5l4 2.5M54.5 18.5h6"/>
  </g>
</svg>
